<svg xmlns="http://www.w3.org/2000/svg" viewBox="0 0 48 48" width="48" height="48">
  <defs>
    <linearGradient id="wizardGradient" x1="0%" y1="0%" x2="100%" y2="100%">
      <stop offset="0%" style="stop-color:#6366f1;stop-opacity:1" />
      <stop offset="100%" style="stop-color:#8b5cf6;stop-opacity:1" />
    </linearGradient>
  </defs>
  
  <!-- Wizard hat background -->
  <circle cx="24" cy="24" r="22" fill="url(#wizardGradient)" stroke="#4f46e5" stroke-width="2"/>
  
  <!-- Wizard hat -->
  <path d="M16 28 L24 12 L32 28 Z" fill="#fbbf24" stroke="#f59e0b" stroke-width="1"/>
  
  <!-- Hat brim -->
  <ellipse cx="24" cy="28" rx="8" ry="2" fill="#f59e0b"/>
  
  <!-- Stars -->
  <g fill="#fef3c7">
    <path d="M20 20 L21 22 L23 21 L21.5 23 L22.5 25 L20 24 L17.5 25 L18.5 23 L17 21 L19 22 Z" transform="scale(0.4)"/>
    <path d="M28 24 L29 26 L31 25 L29.5 27 L30.5 29 L28 28 L25.5 29 L26.5 27 L25 25 L27 26 Z" transform="scale(0.3)"/>
  </g>
  
  <!-- Book/Dictionary -->
  <rect x="18" y="30" width="12" height="8" rx="1" fill="#f3f4f6" stroke="#9ca3af" stroke-width="1"/>
  <line x1="20" y1="32" x2="28" y2="32" stroke="#6b7280" stroke-width="0.5"/>
  <line x1="20" y1="34" x2="26" y2="34" stroke="#6b7280" stroke-width="0.5"/>
  <line x1="20" y1="36" x2="28" y2="36" stroke="#6b7280" stroke-width="0.5"/>
  
  <!-- Magic sparkles -->
  <g fill="#fbbf24" opacity="0.8">
    <circle cx="12" cy="16" r="1"/>
    <circle cx="36" cy="18" r="1"/>
    <circle cx="14" cy="34" r="0.5"/>
    <circle cx="34" cy="36" r="0.5"/>
  </g>
</svg>